<svg width="98" height="144" viewBox="0 0 98 144" fill="none" xmlns="http://www.w3.org/2000/svg">
<path fill-rule="evenodd" clip-rule="evenodd" d="M52.7902 0.0143068C52.0666 0.147642 51.6403 0.632275 49.2115 4.08437C45.454 9.42506 39.2368 18.2369 37.5752 20.5766C36.4998 22.0913 36.1097 22.7672 36.0376 23.2403C35.9846 23.589 35.3248 27.9155 34.5714 32.8547L33.2014 41.835L31.8571 41.9498C25.5281 42.4903 20.8092 43.1139 16.4731 43.9828C8.59756 45.5612 4.19083 47.453 2.70811 49.8922C2.29306 50.5751 2.2506 50.7707 2.2038 52.2184C2.15655 53.6735 2.18377 53.8637 2.54589 54.6172C4.16122 57.9786 10.9887 60.4953 23.4049 62.3064C31.989 63.5585 39.6325 64.0418 50.9961 64.0508C61.6266 64.0593 68.3339 63.6941 76.189 62.6794C88.4776 61.092 95.4047 58.6729 97.0871 55.3816C97.4234 54.7236 97.4774 54.4246 97.4853 53.1745C97.4935 51.8882 97.4484 51.6328 97.0759 50.8605C96.0827 48.8016 93.1274 47.0863 88.0752 45.6366C82.3117 43.9827 75.0641 42.8377 65.4897 42.0689C63.5492 41.9131 61.9401 41.7624 61.9138 41.7342C61.8875 41.7059 61.5233 38.0184 61.1045 33.5396C60.6856 29.0609 60.1016 22.8279 59.8066 19.6886L59.2701 13.9808L57.0238 7.66416C54.6968 1.12071 54.5268 0.688438 54.1602 0.378694C53.8699 0.133334 53.1637 -0.0543393 52.7902 0.0143068ZM53.8987 8.92521L55.1274 12.3931L54.7711 13.0348C53.8477 14.6971 46.774 27.0441 46.2 27.9953C45.612 28.97 45.5227 29.2515 45.2582 30.9633C45.0027 32.6174 42.7573 46.7252 41.2782 55.9697C40.9988 57.7163 40.7453 59.1706 40.715 59.2015C40.6526 59.265 36.0121 59.006 34.8113 58.872C34.3688 58.8225 34.0264 58.7079 34.0264 58.6092C34.0264 58.5127 34.5325 55.11 35.151 51.0477C35.7694 46.9853 36.6143 41.4354 37.0283 38.7147C38.872 26.5995 39.2758 24.0462 39.3764 23.8729C39.9199 22.9356 52.513 5.27083 52.5806 5.35105C52.6297 5.40934 53.2229 7.01773 53.8987 8.92521ZM58.1015 37.0404C58.353 39.7612 58.8925 45.5294 59.3002 49.8587C59.708 54.1879 60.0416 58.0009 60.0416 58.3318C60.0416 59.3577 59.9782 59.4151 58.8448 59.4151H57.8293L57.7435 58.3877C57.6433 57.1884 57.4855 31.5265 57.5803 31.8653C57.6156 31.9909 57.85 34.3197 58.1015 37.0404ZM68.0405 46.9495C78.1872 47.867 86.4459 49.5159 91.215 51.5767C92.1589 51.9846 93.5325 52.8739 93.5325 53.0773C93.5325 53.2908 92.2909 54.0822 91.2505 54.5319C87.4917 56.1565 80.6714 57.6069 72.9745 58.4186C69.7128 58.7624 65.3468 59.1107 64.2955 59.1107H63.3844L63.3591 58.1764C63.3348 57.2763 62.521 48.227 62.3574 47.0373L62.2774 46.4559L63.5143 46.5539C64.1946 46.608 66.2314 46.786 68.0405 46.9495ZM32.3841 46.8959C32.3867 47.2042 30.7114 58.3999 30.651 58.4773C30.5411 58.6184 23.2305 57.6813 20.1217 57.1276C16.9963 56.5709 13.5076 55.7411 11.3798 55.0479C9.14762 54.3207 6.73164 53.2127 6.28655 52.712C6.02639 52.4193 6.02699 52.4006 6.30389 52.1788C6.84079 51.7487 8.53088 50.9278 9.86827 50.4474C14.486 48.789 21.5025 47.5704 31.2604 46.7322C31.5893 46.7038 31.9763 46.6693 32.1201 46.6551C32.2784 46.6396 32.3826 46.7347 32.3841 46.8959ZM31.3352 66.1272C18.3948 67.1554 8.26639 69.0986 3.58096 71.4519C2.09391 72.1988 0.669352 73.4684 0.311269 74.3661C-0.0248356 75.2086 -0.106172 77.0276 0.153233 77.9048C0.934736 80.5483 5.18314 82.6292 13.0199 84.2067C30.2034 87.6659 59.9443 88.0431 79.6278 85.0516C90.3061 83.4287 96.3155 81.1978 97.6396 78.3651C97.8253 77.9678 97.9462 77.304 97.9879 76.4545C98.0714 74.7494 97.7362 73.9015 96.529 72.7636C93.4432 69.8552 84.0575 67.6528 68.7133 66.2363C66.1313 65.998 60.1352 65.9882 59.5895 66.2216L59.2123 66.3829L58.3934 74.3372C57.8523 79.5949 57.5078 82.3741 57.3774 82.5353C57.1722 82.7892 57.1805 81.3698 57.4485 70.4502L57.5456 66.4928H49.517H41.4884L41.5703 67.0255C41.7596 68.2566 43.4457 81.8231 43.4457 82.1158C43.4457 82.4342 43.4306 82.4353 40.3433 82.3248C38.6369 82.2637 37.2248 82.1989 37.2049 82.1808C37.1851 82.1625 36.6636 78.5981 36.0462 74.2597C35.4287 69.9213 34.8478 66.2791 34.7556 66.1658C34.5688 65.9368 33.8356 65.9286 31.3352 66.1272ZM64.9033 70.6811C76.1233 71.4079 84.6602 72.7056 90.1503 74.5191C91.7579 75.05 93.7197 75.9819 93.7949 76.2503C93.8209 76.3428 93.3459 76.6647 92.7396 76.9658C89.139 78.7532 82.1815 80.2496 72.8249 81.249C69.1415 81.6424 63.221 82.0942 61.7483 82.0942H60.9203L61.0054 81.4473C61.1103 80.649 62.1348 70.875 62.1348 70.6726C62.1348 70.4934 62.0005 70.4931 64.9033 70.6811ZM32.2322 70.9726C32.2322 71.0505 32.5685 73.4649 32.9797 76.338C33.3907 79.2109 33.7271 81.6471 33.7272 81.7517C33.7274 82.0041 32.9233 81.9966 29.4407 81.7117C20.5381 80.9831 12.6368 79.6652 7.98023 78.1323C6.04448 77.495 4.1986 76.6428 4.1986 76.3864C4.1986 76.1046 5.9781 75.2612 8.01118 74.5796C12.119 73.2025 18.1759 72.0922 25.5789 71.3595C30.9955 70.8234 32.2322 70.7516 32.2322 70.9726ZM34.8347 89.567C34.9664 90.1859 35.234 92.1797 35.1896 92.2116C35.1666 92.2282 34.0376 92.3599 32.6808 92.5042C25.6212 93.2549 19.6883 94.4777 16.9819 95.7401C15.4309 96.4636 14.7857 96.9517 14.3267 97.7491C13.9809 98.3499 13.9338 98.5942 13.9398 99.7595C13.9474 101.257 14.1538 101.749 15.1633 102.678C18.7915 106.015 40.0082 107.698 59.7426 106.214C72.3407 105.267 80.8695 103.339 82.9794 100.962C83.6256 100.234 83.8186 99.528 83.7573 98.118C83.7005 96.8155 83.3064 96.0803 82.2789 95.3605C80.4734 94.096 76.3285 93.0588 70.358 92.378C67.6941 92.0742 62.4933 91.6839 61.1036 91.6836L59.9978 91.6833L60.0939 90.5252L60.1901 89.367L59.6298 89.4576C59.3218 89.5074 55.7899 89.5932 51.781 89.6483C46.6142 89.7192 44.4924 89.7975 44.4926 89.9168C44.4927 90.0093 44.8291 92.7174 45.2401 95.9348C45.6512 99.1521 45.9874 101.841 45.9874 101.909C45.9874 101.978 44.6431 102.034 43 102.034C40.023 102.034 40.0123 102.032 39.9404 101.691C39.9006 101.503 39.4932 98.6805 39.0349 95.4196C38.5767 92.1585 38.1837 89.4722 38.1619 89.4498C38.1399 89.4274 37.3647 89.3624 36.4394 89.3052L34.7568 89.2011L34.8347 89.567ZM63.2769 96.4048C66.7111 96.6047 71.4361 97.0864 73.722 97.4701C75.8726 97.831 78.2822 98.3995 78.2822 98.546C78.2822 98.6785 76.3249 99.2196 74.1709 99.6827C71.3463 100.29 66.3687 100.925 59.9073 101.504L58.9509 101.59L59.0487 100.48C59.1025 99.8694 59.2227 98.6679 59.3156 97.8097L59.4845 96.2496H60.0455C60.3541 96.2496 61.8082 96.3195 63.2769 96.4048ZM36.2218 99.1415C36.4014 100.355 36.5527 101.475 36.5582 101.629C36.5693 101.943 36.6651 101.946 30.8694 101.492C25.5677 101.077 19.3338 100.034 19.5941 99.6053C19.7185 99.4003 23.8479 98.4254 26.347 98.0111C28.2193 97.7006 30.655 97.3854 34.4749 96.9589C34.7627 96.9268 35.2001 96.9082 35.4468 96.9175L35.8953 96.9345L36.2218 99.1415ZM36.7924 108.441C34.7728 108.652 30.4364 109.45 29.0232 109.871C26.4802 110.628 24.7434 111.869 24.5186 113.09C24.4674 113.367 24.4498 114.138 24.4794 114.802C24.5275 115.879 24.5829 116.073 24.9921 116.594C26.7417 118.822 32.0338 120.372 41.1256 121.32C43.1613 121.532 45.1195 121.586 50.9213 121.589C59.1125 121.593 61.439 121.434 65.7231 120.58C69.5268 119.821 71.7052 118.743 72.4547 117.247C72.8538 116.451 72.861 114.549 72.4682 113.669C71.558 111.629 67.6708 110.113 60.7892 109.113C59.3501 108.905 57.8027 108.674 57.3504 108.6C56.8272 108.515 55.4673 108.54 53.6126 108.667C52.009 108.777 49.9233 108.871 48.9777 108.877C48.032 108.883 47.182 108.938 47.0887 108.999C46.9649 109.081 47.0341 110.033 47.3462 112.536C47.5809 114.419 47.8159 116.226 47.8684 116.551L47.9638 117.141L46.8634 117.05C46.2583 116.999 44.9706 116.914 44.0019 116.859C42.5927 116.78 42.2154 116.711 42.114 116.513C42.0445 116.377 41.774 114.69 41.5132 112.764C41.2525 110.839 40.9426 109.041 40.8244 108.769L40.6097 108.274L39.2991 108.295C38.5783 108.306 37.4502 108.372 36.7924 108.441ZM38.4252 114.739C38.5481 115.571 38.622 116.28 38.5894 116.313C38.3509 116.556 30.1441 114.885 29.7864 114.521C29.6476 114.38 30.0562 114.242 31.7837 113.847C33.4098 113.476 37.8904 112.973 38.0951 113.139C38.1538 113.186 38.3023 113.906 38.4252 114.739ZM61.8358 113.995C64.29 114.413 67.4497 115.253 67.2656 115.44C66.9383 115.771 62.2829 116.525 58.4158 116.873L57.3131 116.972L57.4038 116.162C57.4535 115.716 57.5386 114.917 57.5929 114.385L57.6914 113.418L58.6797 113.522C59.2232 113.579 60.6434 113.792 61.8358 113.995ZM39.7083 123.595C39.7092 124.072 41.1886 134.338 41.36 135.056C41.5635 135.909 44.4388 142.606 44.8402 143.162C45.3744 143.902 45.9929 144.087 47.5359 143.966C49.0125 143.851 49.839 143.516 50.2578 142.866C50.3847 142.669 50.9511 140.001 51.5161 136.939C52.0813 133.877 52.599 131.322 52.6669 131.261C52.7348 131.2 53.4781 130.626 54.3189 129.984C55.1596 129.342 55.917 128.685 56.0021 128.523C56.1695 128.205 56.6638 123.811 56.5457 123.691C56.5064 123.65 55.3323 123.693 53.9369 123.785C52.5415 123.876 50.821 123.952 50.114 123.952C49.4068 123.952 48.8283 124.003 48.8285 124.066C48.8286 124.129 48.9745 125.276 49.1527 126.615C49.331 127.955 49.4769 129.222 49.477 129.431C49.4772 129.887 47.5117 140.411 47.4064 140.518C47.2847 140.642 47.2456 140.563 45.9035 137.493L44.6083 134.53L43.8347 129.136C42.9435 122.921 43.2893 123.619 41.0046 123.425C39.806 123.324 39.7079 123.337 39.7083 123.595Z" fill="white"/>
</svg>
